<svg fill="#FFF" xmlns="http://www.w3.org/2000/svg" viewBox="0 0 50 50"><path d="M12 48.651a.998.998 0 01-.995-.898l-.343-3.336 1.99-.204.201 1.965.246-.109.811 1.828-1.505.667a.971.971 0 01-.405.087zm2.927-3.391l4.572-2.027.81 1.828-4.572 2.027zm7.211-1.012l-.811-1.828 1.013-.449c.16-.07.34-.097.507-.081 1.236.125 2.495.141 3.712.053l.146 1.994a23.371 23.371 0 01-3.795-.032l-.772.343zm6.641-.558l-.328-1.973a20.728 20.728 0 004.572-1.314l.771 1.846a22.717 22.717 0 01-5.015 1.441zm-18.321-1.263l-.412-4.023a21.257 21.257 0 01-3.235-3.586l1.627-1.162a19.336 19.336 0 003.211 3.491c.196.167.32.403.347.66l.453 4.417-1.991.203zm25.229-1.075l-.941-1.765a20.158 20.158 0 003.9-2.71l1.328 1.495a22.209 22.209 0 01-4.287 2.98zm5.785-4.444l-1.467-1.36a19.072 19.072 0 002.771-3.844l1.756.957a21.156 21.156 0 01-3.06 4.247zm-35.794-3.86A20.367 20.367 0 013.683 28.2l1.932-.517a18.462 18.462 0 001.8 4.373l-1.737.992zm39.764-2.281l-1.846-.772a18.055 18.055 0 001.24-4.558l1.982.268a20.025 20.025 0 01-1.376 5.062zM3.247 26.143a20.112 20.112 0 01-.138-5.243l1.988.207a18.204 18.204 0 00.125 4.724l-1.975.312zm43.744-2.534l-2-.061a18.111 18.111 0 00-.471-4.698l1.947-.458a20.179 20.179 0 01.524 5.217zM5.394 19.238l-1.957-.415a20.206 20.206 0 011.749-4.945l1.783.905a18.162 18.162 0 00-1.575 4.455zm38.595-2.206a18.592 18.592 0 00-2.119-4.227l1.66-1.115a20.677 20.677 0 012.348 4.682l-1.889.66zM7.913 13.137l-1.684-1.081a21.355 21.355 0 013.349-4.019l1.369 1.458a19.334 19.334 0 00-3.034 3.642zm32.819-1.854a19.757 19.757 0 00-3.446-3.264l1.191-1.606a21.759 21.759 0 013.796 3.596l-1.541 1.274zM12.394 8.26l-1.223-1.582a22.26 22.26 0 014.478-2.686l.822 1.823a20.248 20.248 0 00-4.077 2.445zm23.312-1.302a20.412 20.412 0 00-4.33-1.968l.609-1.904a22.403 22.403 0 014.756 2.161l-1.035 1.711zM18.243 5.116l-.646-1.893a22.784 22.784 0 015.098-1.109l.199 1.99a20.78 20.78 0 00-4.651 1.012zm11.291-.623A21.041 21.041 0 0025 4l-.204.001-.014-2L25 2c1.674 0 3.345.182 4.966.54l-.432 1.953zM16 42a1 1 0 01-1-1v-5.063C10.606 32.926 8 28.129 8 23c0-8.822 7.626-16 17-16s17 7.178 17 16-7.626 16-17 16c-1.028 0-2.06-.088-3.07-.262l-5.431 3.128A.989.989 0 0116 42z"/></svg>