<svg fill="#FFF" xmlns="http://www.w3.org/2000/svg" viewBox="0 0 30 30" width="60" height="60"><path d="M4.796 20.836L3.107 27l6.308-1.656z"/><path d="M15 3C8.373 3 3 8.373 3 15s5.373 12 12 12 12-5.373 12-12S21.627 3 15 3zm5.924 16.143c-.247.693-1.461 1.363-2.005 1.41-.549.051-1.061.247-3.568-.74-3.024-1.191-4.931-4.289-5.08-4.489-.149-.195-1.21-1.61-1.21-3.07 0-1.465.768-2.182 1.037-2.48.274-.298.595-.372.795-.372.195 0 .395 0 .568.009.214.005.447.019.67.512.265.586.842 2.056.916 2.205.074.149.126.326.023.521-.098.2-.149.321-.293.498-.149.172-.312.386-.447.516-.149.149-.302.312-.13.609s.768 1.27 1.651 2.056c1.135 1.014 2.093 1.326 2.391 1.475s.47.126.642-.074c.177-.195.744-.865.944-1.163.195-.298.395-.247.665-.149.274.098 1.735.819 2.033.968s.493.223.568.344c.077.125.077.72-.17 1.414z"/></svg>